<svg xmlns="http://www.w3.org/2000/svg" xmlns:xlink="http://www.w3.org/1999/xlink" preserveAspectRatio="xMidYMid" width="102.938" height="112.25" viewBox="0 0 102.938 112.25">
  <defs>
    <style>
      .cls-1 {
        fill: #7ee6d9;
        fill-rule: evenodd;
      }
    </style>
  </defs>
  <path d="M90.428,92.753 C81.532,97.392 72.900,102.480 64.532,108.018 C56.164,113.555 47.749,113.625 39.289,108.226 C30.828,102.827 22.111,97.882 13.137,93.391 C4.164,88.900 -0.105,81.635 0.330,71.598 C0.765,61.560 0.680,51.527 0.075,41.498 C-0.531,31.469 3.614,24.135 12.510,19.496 C21.406,14.858 30.038,9.769 38.406,4.232 C46.774,-1.306 55.189,-1.375 63.649,4.023 C72.110,9.422 80.827,14.367 89.801,18.859 C98.774,23.350 103.043,30.614 102.608,40.652 C102.173,50.689 102.258,60.723 102.863,70.751 C103.469,80.781 99.324,88.114 90.428,92.753 Z" class="cls-1"/>
</svg>
