<svg xmlns="http://www.w3.org/2000/svg" xmlns:xlink="http://www.w3.org/1999/xlink" preserveAspectRatio="xMidYMid" width="104.625" height="114.125" viewBox="0 0 104.625 114.125">
  <defs>
    <style>
      .cls-1 {
        fill: #fdb700;
        fill-rule: evenodd;
      }
    </style>
  </defs>
  <path d="M91.631,94.737 C82.516,99.362 73.664,104.447 65.077,109.992 C56.491,115.537 47.914,115.519 39.348,109.937 C30.782,104.356 21.950,99.233 12.852,94.569 C3.754,89.905 -0.521,82.469 0.029,72.262 C0.579,62.055 0.598,51.847 0.086,41.638 C-0.425,31.429 3.877,24.011 12.993,19.386 C22.108,14.761 30.960,9.676 39.546,4.131 C48.133,-1.414 56.710,-1.396 65.276,4.186 C73.842,9.767 82.674,14.890 91.772,19.554 C100.870,24.219 105.144,31.654 104.595,41.861 C104.045,52.068 104.026,62.276 104.538,72.485 C105.049,82.694 100.747,90.112 91.631,94.737 Z" class="cls-1"/>
</svg>
