<svg xmlns="http://www.w3.org/2000/svg" xmlns:xlink="http://www.w3.org/1999/xlink" preserveAspectRatio="xMidYMid" width="103.88" height="112.25" viewBox="0 0 103.88 112.25">
  <defs>
    <style>
      .cls-1 {
        fill: #c6e586;
        fill-rule: evenodd;
      }
    </style>
  </defs>
  <path d="M91.273,92.753 C82.292,97.392 73.577,102.480 65.128,108.018 C56.680,113.555 48.185,113.625 39.642,108.226 C31.100,102.827 22.299,97.882 13.240,93.391 C4.180,88.900 -0.130,81.635 0.309,71.598 C0.749,61.560 0.663,51.527 0.051,41.498 C-0.560,31.469 3.625,24.135 12.607,19.496 C21.588,14.858 30.303,9.769 38.752,4.232 C47.200,-1.306 55.695,-1.375 64.237,4.023 C72.780,9.422 81.581,14.367 90.640,18.859 C99.700,23.350 104.010,30.614 103.571,40.652 C103.131,50.689 103.217,60.723 103.828,70.751 C104.440,80.781 100.255,88.114 91.273,92.753 Z" class="cls-1"/>
</svg>
