<svg xmlns="http://www.w3.org/2000/svg" xmlns:xlink="http://www.w3.org/1999/xlink" preserveAspectRatio="xMidYMid" width="127.25" height="137.812" viewBox="0 0 127.25 137.812">
  <defs>
    <style>
      .cls-1 {
        fill: #fff;
        stroke: #b5eee7;
        stroke-linejoin: round;
        stroke-width: 4px;
        fill-rule: evenodd;
      }
    </style>
  </defs>
  <path d="M110.384,112.612 C100.094,118.550 89.910,124.665 79.831,130.957 C69.753,137.250 59.581,137.406 49.315,131.426 C39.050,125.446 28.684,119.646 18.218,114.027 C7.753,108.407 2.532,99.639 2.556,87.720 C2.580,75.802 2.399,63.887 2.012,51.975 C1.625,40.063 6.576,31.139 16.866,25.200 C27.156,19.262 37.340,13.147 47.419,6.855 C57.497,0.562 67.669,0.406 77.935,6.386 C88.200,12.366 98.566,18.166 109.032,23.785 C119.497,29.405 124.718,38.173 124.694,50.092 C124.670,62.010 124.851,73.925 125.238,85.837 C125.625,97.748 120.674,106.673 110.384,112.612 Z" class="cls-1"/>
</svg>
