<svg xmlns="http://www.w3.org/2000/svg" xmlns:xlink="http://www.w3.org/1999/xlink" preserveAspectRatio="xMidYMid" width="125.937" height="135.781" viewBox="0 0 125.937 135.781">
  <defs>
    <style>
      .cls-1 {
        fill: #fff;
        stroke: #ffa99e;
        stroke-linejoin: round;
        stroke-width: 4px;
        fill-rule: evenodd;
      }
    </style>
  </defs>
  <path d="M109.238,110.950 C99.055,116.800 88.976,122.824 79.002,129.023 C69.027,135.221 58.960,135.375 48.801,129.484 C38.642,123.593 28.384,117.880 18.026,112.344 C7.669,106.809 2.502,98.171 2.526,86.430 C2.550,74.690 2.370,62.952 1.988,51.218 C1.605,39.484 6.505,30.692 16.688,24.842 C26.871,18.993 36.950,12.969 46.924,6.770 C56.899,0.572 66.965,0.418 77.125,6.308 C87.284,12.200 97.542,17.913 107.900,23.448 C118.257,28.984 123.424,37.622 123.400,49.362 C123.376,61.103 123.555,72.840 123.938,84.574 C124.321,96.309 119.421,105.101 109.238,110.950 Z" class="cls-1"/>
</svg>
