<svg xmlns="http://www.w3.org/2000/svg" xmlns:xlink="http://www.w3.org/1999/xlink" preserveAspectRatio="xMidYMid" width="126.656" height="136.812" viewBox="0 0 126.656 136.812">
  <defs>
    <style>
      .cls-1 {
        fill: #fff;
        stroke: #d6f792;
        stroke-linejoin: round;
        stroke-width: 4px;
        fill-rule: evenodd;
      }
    </style>
  </defs>
  <path d="M109.859,111.793 C99.619,117.687 89.484,123.758 79.454,130.004 C69.424,136.251 59.301,136.406 49.085,130.470 C38.869,124.533 28.553,118.776 18.138,113.197 C7.723,107.619 2.528,98.914 2.552,87.083 C2.576,75.252 2.395,63.424 2.010,51.599 C1.625,39.774 6.552,30.914 16.792,25.019 C27.032,19.125 37.167,13.054 47.198,6.808 C57.228,0.561 67.351,0.406 77.567,6.342 C87.783,12.279 98.098,18.036 108.513,23.615 C118.928,29.193 124.124,37.898 124.100,49.729 C124.076,61.560 124.256,73.388 124.641,85.213 C125.026,97.038 120.099,105.898 109.859,111.793 Z" class="cls-1"/>
</svg>
